<mxfile host="drawio-plugin" modified="2023-01-13T08:55:46.078Z" agent="5.0 (Windows NT 6.2; Win64; x64) AppleWebKit/537.36 (KHTML, like Gecko) Chrome/89.0.4389.114 Safari/537.36" etag="kmfxUNLvsCE18kdhgsbm" version="15.5.4" type="embed"><diagram id="mVEaKRiMTRjiz39qyeOy" name="Seite-1"><mxGraphModel dx="1807" dy="695" grid="1" gridSize="10" guides="1" tooltips="1" connect="1" arrows="1" fold="1" page="0" pageScale="1" pageWidth="827" pageHeight="1169" math="0" shadow="0"><root><mxCell id="0"/><mxCell id="1" parent="0"/><mxCell id="57" value="&lt;font color=&quot;#cc00cc&quot;&gt;&lt;b&gt;Entwickler&lt;/b&gt;&lt;/font&gt;" style="shape=umlActor;verticalLabelPosition=bottom;verticalAlign=top;html=1;outlineConnect=0;" vertex="1" parent="1"><mxGeometry x="40" y="1100" width="30" height="60" as="geometry"/></mxCell><mxCell id="58" value="&lt;b&gt;&lt;font color=&quot;#00cc00&quot;&gt;Reviewer&lt;/font&gt;&lt;/b&gt;" style="shape=umlActor;verticalLabelPosition=bottom;verticalAlign=top;html=1;outlineConnect=0;" vertex="1" parent="1"><mxGeometry x="30" y="960" width="30" height="60" as="geometry"/></mxCell><mxCell id="59" style="rounded=0;orthogonalLoop=1;jettySize=auto;html=1;endSize=13;endArrow=none;endFill=0;" edge="1" parent="1" target="85"><mxGeometry relative="1" as="geometry"><mxPoint x="60" y="780" as="sourcePoint"/></mxGeometry></mxCell><mxCell id="60" value="&lt;b&gt;&lt;font color=&quot;#0000ff&quot;&gt;Projekt Manager&lt;/font&gt;&lt;/b&gt;" style="shape=umlActor;verticalLabelPosition=bottom;verticalAlign=top;html=1;outlineConnect=0;" vertex="1" parent="1"><mxGeometry x="30" y="760" width="30" height="60" as="geometry"/></mxCell><mxCell id="61" value="" style="swimlane;startSize=0;" vertex="1" parent="1"><mxGeometry x="120" y="560" width="520" height="670" as="geometry"/></mxCell><mxCell id="62" value="Login" style="ellipse;whiteSpace=wrap;html=1;" vertex="1" parent="61"><mxGeometry x="38.75" y="10" width="80" height="30" as="geometry"/></mxCell><mxCell id="63" value="Registrierung" style="ellipse;whiteSpace=wrap;html=1;" vertex="1" parent="61"><mxGeometry x="242.5" y="30" width="80" height="40" as="geometry"/></mxCell><mxCell id="64" value="Logout" style="ellipse;whiteSpace=wrap;html=1;" vertex="1" parent="61"><mxGeometry x="65" y="60" width="80" height="30" as="geometry"/></mxCell><mxCell id="65" value="Kundenprojekt verfassen" style="ellipse;whiteSpace=wrap;html=1;" vertex="1" parent="61"><mxGeometry x="190" y="95" width="120" height="40" as="geometry"/></mxCell><mxCell id="66" value="&lt;div&gt;&lt;span&gt;Einem Kundenprojekt zugewiesene Entwicklerprofile ansehen&lt;/span&gt;&lt;br&gt;&lt;/div&gt;" style="ellipse;whiteSpace=wrap;html=1;" vertex="1" parent="61"><mxGeometry x="300" y="260" width="220" height="50" as="geometry"/></mxCell><mxCell id="67" value="Kundenprojekt veröffentlichen" style="ellipse;whiteSpace=wrap;html=1;" vertex="1" parent="61"><mxGeometry x="10" y="110" width="100" height="50" as="geometry"/></mxCell><mxCell id="68" value="Anfrage an zugewiesenen Entwickler für Kundenprojekt senden" style="ellipse;whiteSpace=wrap;html=1;" vertex="1" parent="61"><mxGeometry x="284" y="140" width="196" height="60" as="geometry"/></mxCell><mxCell id="69" value="Ablehnen der Anfrage begründen" style="ellipse;whiteSpace=wrap;html=1;" vertex="1" parent="61"><mxGeometry x="190" y="610" width="132.5" height="50" as="geometry"/></mxCell><mxCell id="70" value="Kundenprojekte ansehen" style="ellipse;whiteSpace=wrap;html=1;" vertex="1" parent="61"><mxGeometry x="23.75" y="250" width="110" height="50" as="geometry"/></mxCell><mxCell id="71" value="Kundenprojekt-Anfragen annehmen/ablehnen" style="ellipse;whiteSpace=wrap;html=1;" vertex="1" parent="61"><mxGeometry x="187.5" y="520" width="152.5" height="50" as="geometry"/></mxCell><mxCell id="72" value="Profil bearbeiten" style="ellipse;whiteSpace=wrap;html=1;" vertex="1" parent="61"><mxGeometry x="50" y="620" width="114" height="40" as="geometry"/></mxCell><mxCell id="73" value="Profil erstellen" style="ellipse;whiteSpace=wrap;html=1;" vertex="1" parent="61"><mxGeometry x="70" y="570" width="100" height="40" as="geometry"/></mxCell><mxCell id="74" value="&lt;div&gt;veröffentlichte&lt;br&gt;&lt;/div&gt;&lt;div&gt;Kundenprojekte einsehen&lt;/div&gt;" style="ellipse;whiteSpace=wrap;html=1;" vertex="1" parent="61"><mxGeometry x="17.5" y="325" width="122.5" height="50" as="geometry"/></mxCell><mxCell id="75" value="Nach Entwicklerprofilen mit spezifischen Skills suchen" style="ellipse;whiteSpace=wrap;html=1;" vertex="1" parent="61"><mxGeometry x="290" y="475" width="190" height="45" as="geometry"/></mxCell><mxCell id="76" value="Entwicklerprofile ansehen" style="ellipse;whiteSpace=wrap;html=1;" vertex="1" parent="61"><mxGeometry x="340" y="405" width="120" height="50" as="geometry"/></mxCell><mxCell id="77" value="Entwickler einem Kundenprojekt zuweisen" style="ellipse;whiteSpace=wrap;html=1;" vertex="1" parent="61"><mxGeometry x="140" y="375" width="195" height="50" as="geometry"/></mxCell><mxCell id="78" value="" style="endArrow=block;endSize=13;endFill=0;html=1;rounded=0;entryX=0.5;entryY=1;entryDx=0;entryDy=0;" edge="1" parent="61" source="74" target="70"><mxGeometry width="160" relative="1" as="geometry"><mxPoint x="90" y="330" as="sourcePoint"/><mxPoint x="450" y="340" as="targetPoint"/></mxGeometry></mxCell><mxCell id="79" value="" style="endArrow=block;endSize=16;endFill=0;html=1;rounded=0;" edge="1" parent="61" source="66" target="76"><mxGeometry width="160" relative="1" as="geometry"><mxPoint x="320" y="295" as="sourcePoint"/><mxPoint x="480" y="295" as="targetPoint"/></mxGeometry></mxCell><mxCell id="80" value="Kundenprojekt-Anfragen lesen" style="ellipse;whiteSpace=wrap;html=1;" vertex="1" parent="61"><mxGeometry x="23.75" y="485" width="126.25" height="35" as="geometry"/></mxCell><mxCell id="81" value="&lt;b&gt;&lt;font style=&quot;font-size: 15px&quot;&gt;WRAM&lt;/font&gt;&lt;/b&gt;" style="text;html=1;align=center;verticalAlign=middle;resizable=0;points=[];autosize=1;strokeColor=none;fillColor=none;" vertex="1" parent="61"><mxGeometry x="200" width="60" height="20" as="geometry"/></mxCell><mxCell id="82" value="&amp;lt;&amp;lt;include&amp;gt;&amp;gt;" style="endArrow=classic;html=1;rounded=0;dashed=1;" edge="1" parent="61" source="71" target="69"><mxGeometry width="50" height="50" relative="1" as="geometry"><mxPoint x="284" y="576.28" as="sourcePoint"/><mxPoint x="447.98" y="530" as="targetPoint"/></mxGeometry></mxCell><mxCell id="83" value="Entscheidung des Entwicklers über Anfrage lesen" style="ellipse;whiteSpace=wrap;html=1;" vertex="1" parent="61"><mxGeometry x="330" y="570" width="170" height="60" as="geometry"/></mxCell><mxCell id="84" value="&amp;lt;&amp;lt;include&amp;gt;&amp;gt;" style="endArrow=classic;html=1;rounded=0;endFill=1;startArrow=none;startFill=0;dashed=1;" edge="1" parent="61" source="66" target="68"><mxGeometry width="50" height="50" relative="1" as="geometry"><mxPoint x="222.5" y="490" as="sourcePoint"/><mxPoint x="386.48" y="443.72" as="targetPoint"/></mxGeometry></mxCell><mxCell id="85" value="Nicht versendete Anfragen löschen" style="ellipse;whiteSpace=wrap;html=1;" vertex="1" parent="61"><mxGeometry x="330" y="80" width="180" height="40" as="geometry"/></mxCell><mxCell id="86" value="&amp;lt;&amp;lt;include&amp;gt;&amp;gt;" style="endArrow=none;html=1;rounded=0;endFill=0;startArrow=classic;startFill=1;entryX=0.441;entryY=0;entryDx=0;entryDy=0;entryPerimeter=0;exitX=1;exitY=0.5;exitDx=0;exitDy=0;dashed=1;" edge="1" parent="61" source="74" target="77"><mxGeometry width="50" height="50" relative="1" as="geometry"><mxPoint x="360.7179882656849" y="250.1189558118026" as="sourcePoint"/><mxPoint x="378.8566656397318" y="209.72897057679666" as="targetPoint"/></mxGeometry></mxCell><mxCell id="87" value="&amp;lt;&amp;lt;include&amp;gt;&amp;gt;" style="endArrow=none;html=1;rounded=0;endFill=0;startArrow=classic;startFill=1;dashed=1;" edge="1" parent="61" source="67" target="65"><mxGeometry width="50" height="50" relative="1" as="geometry"><mxPoint x="150.00000000000068" y="360" as="sourcePoint"/><mxPoint x="235.99500000000012" y="385" as="targetPoint"/></mxGeometry></mxCell><mxCell id="88" value="" style="endArrow=none;html=1;rounded=0;entryX=0;entryY=0.5;entryDx=0;entryDy=0;exitX=0.5;exitY=0.5;exitDx=0;exitDy=0;exitPerimeter=0;endFill=0;" edge="1" parent="1" source="91" target="63"><mxGeometry width="50" height="50" relative="1" as="geometry"><mxPoint x="100" y="620" as="sourcePoint"/><mxPoint x="480" y="620" as="targetPoint"/></mxGeometry></mxCell><mxCell id="89" value="" style="endArrow=none;html=1;rounded=0;entryX=0;entryY=0.5;entryDx=0;entryDy=0;endFill=0;" edge="1" parent="1" source="91" target="64"><mxGeometry width="50" height="50" relative="1" as="geometry"><mxPoint x="100" y="620" as="sourcePoint"/><mxPoint x="480" y="620" as="targetPoint"/></mxGeometry></mxCell><mxCell id="90" value="" style="endArrow=none;html=1;rounded=0;entryX=0;entryY=0.5;entryDx=0;entryDy=0;endFill=0;" edge="1" parent="1" source="91" target="62"><mxGeometry width="50" height="50" relative="1" as="geometry"><mxPoint x="100" y="620" as="sourcePoint"/><mxPoint x="210" y="620" as="targetPoint"/></mxGeometry></mxCell><mxCell id="91" value="{abstract}&lt;br&gt;Benutzer" style="shape=umlActor;verticalLabelPosition=bottom;verticalAlign=top;html=1;outlineConnect=0;" vertex="1" parent="1"><mxGeometry x="30" y="580" width="30" height="60" as="geometry"/></mxCell><mxCell id="92" value="" style="endArrow=block;endSize=16;endFill=0;html=1;rounded=0;exitX=0.5;exitY=0;exitDx=0;exitDy=0;exitPerimeter=0;" edge="1" parent="1" source="60"><mxGeometry width="160" relative="1" as="geometry"><mxPoint x="350" y="790" as="sourcePoint"/><mxPoint x="45" y="680" as="targetPoint"/></mxGeometry></mxCell><mxCell id="93" value="" style="endArrow=block;endSize=16;endFill=0;html=1;rounded=0;exitX=0.5;exitY=0;exitDx=0;exitDy=0;exitPerimeter=0;" edge="1" parent="1"><mxGeometry width="160" relative="1" as="geometry"><mxPoint x="55" y="1130" as="sourcePoint"/><mxPoint x="45" y="680" as="targetPoint"/><Array as="points"><mxPoint x="-10" y="1130"/><mxPoint x="-10" y="780"/><mxPoint x="45" y="730"/></Array></mxGeometry></mxCell><mxCell id="94" value="" style="endArrow=block;endSize=16;endFill=0;html=1;rounded=0;" edge="1" parent="1" source="58"><mxGeometry width="160" relative="1" as="geometry"><mxPoint x="350" y="790" as="sourcePoint"/><mxPoint x="45" y="680" as="targetPoint"/><Array as="points"><mxPoint x="-10" y="990"/><mxPoint x="-10" y="780"/><mxPoint x="45" y="730"/></Array></mxGeometry></mxCell><mxCell id="95" value="" style="endArrow=none;html=1;rounded=0;exitX=1;exitY=0.3333333333333333;exitDx=0;exitDy=0;exitPerimeter=0;endFill=0;" edge="1" parent="1" source="60" target="65"><mxGeometry width="50" height="50" relative="1" as="geometry"><mxPoint x="90" y="780" as="sourcePoint"/><mxPoint x="480" y="810" as="targetPoint"/></mxGeometry></mxCell><mxCell id="96" value="" style="endArrow=none;html=1;rounded=0;entryX=0;entryY=0.5;entryDx=0;entryDy=0;endFill=0;" edge="1" parent="1" source="57" target="73"><mxGeometry width="50" height="50" relative="1" as="geometry"><mxPoint x="100" y="1170" as="sourcePoint"/><mxPoint x="520" y="920" as="targetPoint"/></mxGeometry></mxCell><mxCell id="97" value="" style="endArrow=none;html=1;rounded=0;entryX=0;entryY=0.5;entryDx=0;entryDy=0;endFill=0;" edge="1" parent="1" target="71"><mxGeometry width="50" height="50" relative="1" as="geometry"><mxPoint x="50" y="1130" as="sourcePoint"/><mxPoint x="520" y="920" as="targetPoint"/></mxGeometry></mxCell><mxCell id="98" value="" style="endArrow=none;html=1;rounded=0;exitX=0.5;exitY=0.5;exitDx=0;exitDy=0;exitPerimeter=0;entryX=0;entryY=1;entryDx=0;entryDy=0;endFill=0;" edge="1" parent="1" source="58" target="74"><mxGeometry width="50" height="50" relative="1" as="geometry"><mxPoint x="470" y="970" as="sourcePoint"/><mxPoint x="520" y="920" as="targetPoint"/></mxGeometry></mxCell><mxCell id="99" value="" style="endArrow=none;html=1;rounded=0;entryX=0;entryY=0.5;entryDx=0;entryDy=0;endFill=0;exitX=0.5;exitY=0.5;exitDx=0;exitDy=0;exitPerimeter=0;" edge="1" parent="1" source="58" target="75"><mxGeometry width="50" height="50" relative="1" as="geometry"><mxPoint x="470" y="970" as="sourcePoint"/><mxPoint x="520" y="920" as="targetPoint"/></mxGeometry></mxCell><mxCell id="100" value="" style="endArrow=none;html=1;rounded=0;entryX=0;entryY=0.5;entryDx=0;entryDy=0;exitX=0.5;exitY=0.5;exitDx=0;exitDy=0;exitPerimeter=0;endFill=0;" edge="1" parent="1" source="58" target="77"><mxGeometry width="50" height="50" relative="1" as="geometry"><mxPoint x="90" y="1010" as="sourcePoint"/><mxPoint x="520" y="920" as="targetPoint"/></mxGeometry></mxCell><mxCell id="101" value="" style="endArrow=none;html=1;rounded=0;entryX=0;entryY=1;entryDx=0;entryDy=0;exitX=1;exitY=0.3333333333333333;exitDx=0;exitDy=0;exitPerimeter=0;endFill=0;" edge="1" parent="1" source="60" target="67"><mxGeometry width="50" height="50" relative="1" as="geometry"><mxPoint x="90" y="780" as="sourcePoint"/><mxPoint x="150" y="740" as="targetPoint"/></mxGeometry></mxCell><mxCell id="102" value="" style="endArrow=none;html=1;rounded=0;endFill=0;exitX=0.5;exitY=0.5;exitDx=0;exitDy=0;exitPerimeter=0;" edge="1" parent="1" source="58" target="76"><mxGeometry width="50" height="50" relative="1" as="geometry"><mxPoint x="90" y="1010" as="sourcePoint"/><mxPoint x="300" y="960" as="targetPoint"/><Array as="points"/></mxGeometry></mxCell><mxCell id="103" value="" style="endArrow=none;html=1;rounded=0;entryX=0;entryY=0.5;entryDx=0;entryDy=0;exitX=1;exitY=0.3333333333333333;exitDx=0;exitDy=0;exitPerimeter=0;endFill=0;" edge="1" parent="1" source="60" target="68"><mxGeometry width="50" height="50" relative="1" as="geometry"><mxPoint x="90" y="780" as="sourcePoint"/><mxPoint x="530" y="950" as="targetPoint"/><Array as="points"/></mxGeometry></mxCell><mxCell id="104" value="" style="endArrow=none;html=1;rounded=0;entryX=0;entryY=0;entryDx=0;entryDy=0;exitX=1;exitY=0.3333333333333333;exitDx=0;exitDy=0;exitPerimeter=0;endFill=0;" edge="1" parent="1" source="60" target="70"><mxGeometry width="50" height="50" relative="1" as="geometry"><mxPoint x="90" y="780" as="sourcePoint"/><mxPoint x="530" y="930" as="targetPoint"/></mxGeometry></mxCell><mxCell id="105" value="" style="endArrow=none;html=1;rounded=0;entryX=0;entryY=0.5;entryDx=0;entryDy=0;endFill=0;" edge="1" parent="1" source="57" target="72"><mxGeometry width="50" height="50" relative="1" as="geometry"><mxPoint x="100" y="1170" as="sourcePoint"/><mxPoint x="530" y="900" as="targetPoint"/></mxGeometry></mxCell><mxCell id="106" value="" style="endArrow=none;html=1;rounded=0;exitX=1;exitY=0.3333333333333333;exitDx=0;exitDy=0;exitPerimeter=0;entryX=0.01;entryY=0.356;entryDx=0;entryDy=0;entryPerimeter=0;endFill=0;" edge="1" parent="1" source="60" target="66"><mxGeometry width="50" height="50" relative="1" as="geometry"><mxPoint x="90" y="780" as="sourcePoint"/><mxPoint x="530" y="930" as="targetPoint"/></mxGeometry></mxCell><mxCell id="107" value="&lt;b&gt;&lt;font color=&quot;#0000ff&quot;&gt;Projekt Manager&lt;/font&gt;&lt;/b&gt;" style="shape=umlActor;verticalLabelPosition=bottom;verticalAlign=top;html=1;outlineConnect=0;" vertex="1" parent="1"><mxGeometry x="690" y="1110" width="30" height="60" as="geometry"/></mxCell><mxCell id="108" value="" style="endArrow=none;html=1;rounded=0;entryX=0;entryY=1;entryDx=0;entryDy=0;endFill=0;" edge="1" parent="1" source="57" target="80"><mxGeometry width="50" height="50" relative="1" as="geometry"><mxPoint x="100" y="1170" as="sourcePoint"/><mxPoint x="550" y="890" as="targetPoint"/></mxGeometry></mxCell><mxCell id="109" style="rounded=0;orthogonalLoop=1;jettySize=auto;html=1;entryX=0.5;entryY=0.5;entryDx=0;entryDy=0;entryPerimeter=0;endArrow=none;endFill=0;" edge="1" parent="1" source="83" target="107"><mxGeometry relative="1" as="geometry"/></mxCell></root></mxGraphModel></diagram></mxfile>